# AST/ASF file generated using VICON BodyLanguage
# -----------------------------------------------
:version 1.10
:name VICON
:units
  mass 1.0
  length 0.45
  angle deg
:documentation
   .ast/.asf automatically generated from VICON data using
   VICON BodyBuilder and BodyLanguage model FoxedUp or BRILLIANT.MOD
:root
   order TX TY TZ RX RY RZ
   axis XYZ
   position 0 0 0  
   orientation 0 0 0 
:bonedata
  begin
     id 1 
     name lhipjoint
     direction 0.521689 -0.742065 0.420928 
     length 2.47002 
     axis 0 0 0  XYZ
  end
  begin
     id 2 
     name lfemur
     direction 0.34202 -0.939693 0  
     length 7.24654  
     axis 0 0 20  XYZ
    dof rx ry rz
    limits (-160.0 20.0)
           (-70.0 70.0)
           (-60.0 70.0)
  end
  begin
     id 3 
     name ltibia
     direction 0.34202 -0.939693 0   
     length 8.04849   
     axis 0 0 20   XYZ
    dof rx
    limits (-10.0 170.0)
  end
  begin
     id 4 
     name lfoot
     direction 0.0745411 -0.2048 0.975961   
     length 1.72367   
     axis -90 7.62852e-016 20   XYZ
    dof rx rz
    limits (-45.0 90.0)
           (-70.0 20.0)
  end
  begin
     id 5 
     name ltoes
     direction 1.53556e-011 -4.21901e-011 1   
     length 0.87311   
     axis -90 7.62852e-016 20   XYZ
    dof rx
    limits (-90.0 20.0)
  end
  begin
     id 6 
     name rhipjoint
     direction -0.52849 -0.738415 0.418857   
     length 2.48223  
     axis 0 0 0  XYZ 
  end
  begin
     id 7 
     name rfemur
     direction -0.34202 -0.939693 0   
     length 7.15571   
     axis 0 0 -20   XYZ
    dof rx ry rz
    limits (-160.0 20.0)
           (-70.0 70.0)
           (-70.0 60.0)
  end
  begin
     id 8 
     name rtibia
     direction -0.34202 -0.939693 0   
     length 7.81659   
     axis 0 0 -20   XYZ
    dof rx
    limits (-10.0 170.0)
 end
 begin
     id 9 
     name rfoot
     direction -0.0917348 -0.252039 0.963359   
     length 1.84382  
     axis -90 -7.62852e-016 -20   XYZ
    dof rx rz
    limits (-45.0 90.0)
           (-20.0 70.0)
  end
  begin
     id 10 
     name rtoes
     direction -1.53551e-011 -4.21879e-011 1   
     length 0.927771   
     axis -90 -7.62852e-016 -20   XYZ
    dof rx
    limits (-90.0 20.0)
  end
  begin
     id 11 
     name lowerback
     direction 0.00583058 0.999822 0.0179296   
     length 2.1429   
     axis 0 0 0   XYZ
    dof rx ry rz
    limits (-20.0 45.0)
           (-30.0 30.0)
           (-30.0 30.0)
  end
  begin
     id 12 
     name upperback
     direction -0.0137999 0.999752 -0.0175071   
     length 2.14252   
     axis 0 0 0   XYZ
    dof rx ry rz
    limits (-20.0 45.0)
           (-30.0 30.0)
           (-30.0 30.0)
  end
  begin
     id 13 
     name thorax
     direction -0.0158036 0.99955 -0.0254909   
     length 2.1383   
     axis 0 0 0   XYZ
    dof rx ry rz
    limits (-20.0 45.0)
           (-30.0 30.0)
           (-30.0 30.0)
  end
  begin
     id 14 
     name lowerneck
     direction -0.0101179 0.999403 -0.0330262   
     length 1.65808   
     axis 0 0 0   XYZ
    dof rx ry rz
    limits (-20.0 45.0)
           (-30.0 30.0)
           (-30.0 30.0)
  end
  begin
     id 15 
     name upperneck
     direction 0.0497734 0.995978 -0.074501   
     length 1.5897   
     axis 0 0 0   XYZ
    dof rx ry rz
    limits (-20.0 45.0)
           (-30.0 30.0)
           (-30.0 30.0)
  end
  begin
     id 16
     name head
     direction 0.0189524 0.999519 -0.0245438  
     length 1.74024  
     axis 0 0 0   XYZ
    dof rx ry rz
    limits (-20.0 45.0)
           (-30.0 30.0)
           (-30.0 30.0)
  end
  begin
     id 17 
     name lclavicle
     direction 0.945604 0.324422 0.0241537  
     length 3.59089  
     axis 0 0 0   XYZ
    dof ry rz
    limits (-20.0 10.0)
           (0.0 20.0)
  end
  begin
     id 18 
     name lhumerus
     direction 1 -4.48964e-011 -2.63524e-027   
     length 5.2391   
     axis 180 -30 -90   XYZ
    dof rx ry rz
    limits (-60.0 90.0)
           (-90.0 90.0)
           (-90.0 90.0)
  end
  begin
     id 19
     name lradius
     direction 1 -4.48969e-011 3.86978e-028   
     length 3.31467   
     axis 180 -30 -90   XYZ
    dof rx
    limits (-10.0 170.0)
  end
  begin
     id 20
     name lwrist
     direction 1 -4.48963e-011 7.20928e-028   
     length 1.65734   
     axis -5.52449e-016 90 90   XYZ
    dof ry
    limits (-180.0 0.0)
 end
  begin
     id 21 
     name lhand
     direction 1 -4.48964e-011 1.44186e-027   
     length 0.9659   
     axis -9.20027e-016 90 90   XYZ
    dof rx rz
    limits (-90.0 90.0)
           (-45.0 45.0)
  end
  begin
     id 22 
     name lfingers
     direction 1 -4.48965e-011 2.88371e-027   
     length 0.778733   
     axis -1.84005e-015 90 90   XYZ
    dof rx
    limits (0.0 90.0)
  end
  begin
     id 23
     name lthumb
     direction 0.707107 -6.34931e-011 0.707107   
     length 1.11811   
     axis -90 45 2.85299e-015   XYZ
    dof rx rz
    limits (-45.0 45.0)
           (-45.0 45.0)
  end
  begin
     id 24 
     name rclavicle
     direction -0.923762 0.370785 0.0958234   
     length 3.54196  
     axis 0 0 0   XYZ 
    dof ry rz
    limits (-10.0 20.0)
           (-20.0 0.0)
  end
  begin
     id 25 
     name rhumerus
     direction -1 -4.48966e-011 1.18702e-017  
     length 5.30252   
     axis 180 30 90   XYZ
    dof rx ry rz
    limits (-90.0 60.0)
           (-90.0 90.0)
           (-90.0 90.0)
  end
  begin
     id 26 
     name rradius
     direction -1 -4.48966e-011 4.46736e-027   
     length 3.67875   
     axis 180 30 90   XYZ
    dof rx
    limits (-10.0 170.0)
  end
  begin
     id 27 
     name rwrist
     direction -1 -4.48966e-011 7.20928e-028   
     length 1.83937   
     axis -5.52449e-016 -90 -90   XYZ
    dof ry
    limits (-180.0 0.0)
  end
  begin
     id 28
     name rhand
     direction -1 -4.48973e-011 1.44186e-027   
     length 0.594811   
     axis -9.20027e-016 -90 -90   XYZ
    dof rx rz
    limits (-90.0 90.0)
           (-45.0 45.0)
  end
  begin
     id 29
     name rfingers
     direction -1 -4.48963e-011 2.88371e-027   
     length 0.479552   
     axis -1.84005e-015 -90 -90   XYZ
    dof rx
    limits (0.0 90.0)
  end
  begin
     id 30
     name rthumb
     direction -0.707107 -6.34932e-011 0.707107   
     length 0.688544   
     axis -90 -45 -2.85299e-015   XYZ
    dof rx rz
    limits (-45.0 45.0)
           (-45.0 45.0)
  end
:hierarchy
  begin
    root lhipjoint rhipjoint lowerback
    lhipjoint lfemur
    lfemur ltibia
    ltibia lfoot
    lfoot ltoes
    rhipjoint rfemur
    rfemur rtibia
    rtibia rfoot
    rfoot rtoes
    lowerback upperback
    upperback thorax
    thorax lowerneck lclavicle rclavicle
    lowerneck upperneck
    upperneck head
    lclavicle lhumerus
    lhumerus lradius
    lradius lwrist
    lwrist lhand lthumb
    lhand lfingers
    rclavicle rhumerus
    rhumerus rradius
    rradius rwrist
    rwrist rhand rthumb
    rhand rfingers
  end

#!OML:ASF E:\acrobat2\Project_11_07_03\Capture day 1\Session 1\Acrobat.ASF
:FULLY-SPECIFIED
:DEGREES
111
root 10.8464 12.2306 11.2912 -51.7046 0.489874 -0.465263
lowerback 7.39758 -0.7097 2.23777
upperback 11.3801 -0.921815 0.120555
thorax 7.80686 -0.289522 -1.11675
lowerneck 2.52589 -0.75295 -4.15912
upperneck 11.1926 -2.57643 16.9652
head 3.09324 -0.873617 5.869
rclavicle 3.27995e-015 -7.95139e-015
rhumerus -44.3164 8.76115 -77.3197
rradius 37.244
rwrist 13.7145
rhand -23.7807 -46.0603
rfingers 7.12502
rthumb 2.68915 -76.0231
lclavicle 3.27995e-015 -7.95139e-015
lhumerus -45.4922 -16.9194 82.2399
lradius 50.4642
lwrist -4.87172
lhand -36.8876 -27.9031
lfingers 7.12502
lthumb -9.96617 1.84095
rfemur -19.4933 2.23491 8.09398
rtibia -6.04305e-014
rfoot -17.6435 -15.4567
rtoes 33.4077
lfemur -29.0229 -8.68845 -9.16715
ltibia 28.7377
lfoot -21.9901 -4.25318
ltoes -31.5055
112
root 10.8481 11.7615 11.3323 -53.0132 0.365662 -0.464557
lowerback 7.85234 -0.727871 2.34992
upperback 11.5142 -0.933136 0.11946
thorax 7.69769 -0.286788 -1.17547
lowerneck 2.81088 -0.874161 -4.01227
upperneck 10.7425 -2.66976 16.8349
head 2.92104 -0.95183 5.79482
rclavicle 7.7526e-015 -6.55989e-015
rhumerus -44.5115 8.84001 -76.9385
rradius 36.7384
rwrist 15.1066
rhand -24.9262 -46.8303
rfingers 7.12502
rthumb 1.58283 -76.8041
lclavicle 7.7526e-015 -6.55989e-015
lhumerus -44.9869 -16.8819 81.8661
lradius 48.9048
lwrist -6.25799
lhand -37.3486 -27.4592
lfingers 7.12502
lthumb -10.4109 2.26308
rfemur -19.9429 2.01332 7.88648
rtibia -2.8625e-014
rfoot -18.8852 -15.745
rtoes 34.1958
lfemur -29.1089 -8.83202 -8.5929
ltibia 28.0396
lfoot -21.3682 -4.73494
ltoes -29.3196
113
root 10.8506 11.2804 11.3659 -54.3411 0.466331 -0.407308
lowerback 8.36279 -0.776352 2.27411
upperback 11.6949 -0.985781 0.0477473
thorax 7.60873 -0.316309 -1.20276
lowerneck 2.68716 -0.985248 -3.91746
upperneck 10.5664 -2.79038 16.716
head 2.90272 -1.01439 5.73456
rclavicle -3.67752e-015 -2.18663e-015
rhumerus -44.5075 8.83471 -76.5877
rradius 36.1596
rwrist 16.6447
rhand -25.9538 -48.4544
rfingers 7.12502
rthumb 0.590376 -78.4333
lclavicle -3.67752e-015 -2.18663e-015
lhumerus -44.2712 -16.7906 81.4094
lradius 47.1376
lwrist -7.8313
lhand -37.6819 -27.9297
lfingers 7.12502
lthumb -10.7325 1.77612
rfemur -20.8929 1.69921 7.55491
rtibia 1.00944
rfoot -19.5206 -15.9161
rtoes 32.7005
lfemur -29.1251 -8.57552 -8.38425
ltibia 27.3333
lfoot -20.8142 -5.5868
ltoes -29.2263
114
root 10.8532 10.7837 11.4074 -55.5837 1.04334 -0.0178776
lowerback 8.87442 -0.7787 1.60587
upperback 11.8112 -0.990505 -0.156282
thorax 7.45259 -0.36448 -1.03916
lowerneck 2.40898 -1.04358 -4.0919
upperneck 10.7408 -2.90708 16.8163
head 3.01647 -1.05531 5.79496
rclavicle -9.54166e-015 3.97569e-015
rhumerus -44.6539 9.01958 -76.3477
rradius 35.6827
rwrist 18.1222
rhand -26.5283 -50.6521
rfingers 7.12502
rthumb 0.0355371 -80.6319
lclavicle -9.54166e-015 3.97569e-015
lhumerus -43.6448 -16.5865 80.9311
lradius 45.5736
lwrist -9.37398
lhand -37.3121 -28.0846
lfingers 7.12502
lthumb -10.3757 1.63946
rfemur -21.9982 1.35737 6.5487
rtibia 2.06735
rfoot -20.1046 -15.742
rtoes 32.5834
lfemur -29.2691 -8.78966 -8.67111
ltibia 26.732
lfoot -19.2962 -6.12113
ltoes -29.0439
115
root 10.8559 10.2751 11.444 -56.7475 1.38736 0.360298
lowerback 9.3557 -0.761003 1.10075
upperback 11.8728 -0.971968 -0.31641
thorax 7.25472 -0.390178 -0.920529
lowerneck 2.30315 -1.07549 -4.21989
upperneck 10.9634 -2.98538 16.8316
head 3.10995 -1.08393 5.82279
rclavicle -5.76476e-015 3.97569e-016
rhumerus -45.0097 9.46951 -76.2071
rradius 35.4915
rwrist 19.6491
rhand -26.606 -52.4182
rfingers 7.12502
rthumb -0.0395411 -82.398
lclavicle -5.76476e-015 3.97569e-016
lhumerus -43.1291 -16.471 80.5192
lradius 44.0897
lwrist -10.6182
lhand -36.6961 -27.6165
lfingers 7.12502
lthumb -9.78142 2.13637
rfemur -22.5928 1.16077 5.61809
rtibia 1.85812
rfoot -21.0028 -15.4872
rtoes 34.7268
lfemur -29.6038 -10.347 -8.14018
ltibia 26.2478
lfoot -18.6645 -5.66429
ltoes -25.2595
116
root 10.8576 9.75202 11.4767 -57.8654 1.16526 0.434047
lowerback 9.88869 -0.797125 1.17896
upperback 11.9251 -1.01429 -0.285757
thorax 7.01451 -0.40962 -0.92347
lowerneck 2.14112 -1.14463 -4.13722
upperneck 11.2203 -3.07333 16.3528
head 3.21938 -1.1227 5.65477
rclavicle 6.95746e-016 -3.37934e-015
rhumerus -45.3668 10.054 -76.0158
rradius 35.5426
rwrist 21.0639
rhand -26.7486 -53.7936
rfingers 7.12502
rthumb -0.177293 -83.7733
lclavicle 6.95746e-016 -3.37934e-015
lhumerus -42.6316 -16.2113 80.1439
lradius 42.4183
lwrist -12.3316
lhand -36.389 -27.0296
lfingers 7.12502
lthumb -9.48514 2.73694
rfemur -23.3991 1.03827 5.49338
rtibia 1.83455
rfoot -21.609 -15.2632
rtoes 36.0922
lfemur -29.9833 -10.5075 -7.40143
ltibia 25.7691
lfoot -17.9214 -4.84364
ltoes -27.484
117
root 10.8611 9.21276 11.518 -58.9571 1.34862 0.634182
lowerback 10.4825 -0.849035 0.873711
upperback 11.9647 -1.09268 -0.351673
thorax 6.73049 -0.473582 -0.81091
lowerneck 1.97808 -1.17496 -4.12596
upperneck 11.4714 -3.09721 15.8126
head 3.32014 -1.13637 5.48126
rclavicle -3.77691e-015 -4.17448e-015
rhumerus -45.6709 10.6875 -75.8663
rradius 35.6215
rwrist 21.9402
rhand -27.1673 -54.9086
rfingers 7.12502
rthumb -0.581661 -84.8876
lclavicle -3.77691e-015 -4.17448e-015
lhumerus -42.152 -15.8175 79.7617
lradius 40.9299
lwrist -14.3173
lhand -35.664 -25.9235
lfingers 7.12502
lthumb -8.78554 3.8736
rfemur -23.2995 0.823947 4.67138
rtibia -3.18055e-014
rfoot -22.0777 -15.7131
rtoes 38.2946
lfemur -30.5306 -10.5596 -7.15848
ltibia 25.3859
lfoot -17.2179 -5.2674
ltoes -22.7968
